<?xml version="1.0" encoding="utf-8"?>
<svg xmlns="http://www.w3.org/2000/svg" viewBox="0 0 500 500">
  <rect width="512" height="512" style="stroke: rgb(0, 0, 0); fill: rgb(2, 6, 23);"/>
  <path d="M 88.783 378.899 L 88.783 53.899 L 231.283 53.899 L 231.283 83.899 L 123.783 83.899 L 123.783 198.899 L 211.283 198.899 L 211.283 228.899 L 123.783 228.899 L 123.783 348.899 L 236.283 348.899 L 236.283 378.899 Z" style="fill: rgb(121, 134, 203); text-wrap-mode: nowrap;"/>
  <path d="M 382.799 134.052 L 417.799 134.052 L 417.799 396.552 Q 417.799 429.052 397.049 447.802 Q 376.299 466.552 333.299 466.552 Q 290.299 466.552 269.049 447.802 Q 247.799 429.052 247.799 396.552 L 247.799 134.052 L 282.799 134.052 L 282.799 396.552 Q 282.799 415.052 295.299 425.802 Q 307.799 436.552 333.299 436.552 Q 358.299 436.552 370.549 425.802 Q 382.799 415.052 382.799 396.552 Z" style="fill: rgb(121, 134, 203); text-wrap-mode: nowrap;"/>
</svg>